<?xml version="1.0" encoding="utf-8"?>
<!-- Generator: Adobe Illustrator 25.2.1, SVG Export Plug-In . SVG Version: 6.00 Build 0)  -->
<svg version="1.1" id="Logo" xmlns="http://www.w3.org/2000/svg" xmlns:xlink="http://www.w3.org/1999/xlink" x="0px" y="0px"
	 viewBox="0 0 300 62" style="enable-background:new 0 0 300 62;" xml:space="preserve">
<style type="text/css">
	.st0{fill:#FFFFFF;}
</style>
<g>
	<path class="st0" d="M19.9,23.8c-3.5,0-5.3,1.5-5.5,4.5H14V15H9.5v31.7c2,0.3,4,0.4,6,0.4c8.8,0,13.8-4.8,13.8-13.1
		C29.2,27.5,25.8,23.8,19.9,23.8z M16.4,43.2c-0.8,0-1.6,0-2.4-0.1V34c0-4.3,1.9-6.4,5.7-6.4c3.3,0,5.1,2.3,5.1,6.3
		C24.8,39.9,21.8,43.2,16.4,43.2z"/>
	<path class="st0" d="M49.1,23.8c-3.9,0-5.9,2-6.2,6.2h-0.5l-0.8-5.7h-7.8v3.9h4.1v14.5h-5v3.9H48v-3.9h-5.5V37c0-6,1.9-9.4,5.7-9.4
		c2.2,0,3.1,1.4,3.1,4.6h4.4C55.7,26.3,53.7,23.8,49.1,23.8z"/>
	<path class="st0" d="M77.9,24.2h-4.5v12c0,4.9-1.7,6.8-4.9,6.8c-2.6,0-4.2-1.4-4.2-4V24.2h-4.5V39c0,5.1,2.7,8,7.4,8
		c3,0,5.1-1.7,5.9-4.7h0.4l0.3,4.5l7.2-0.2V43l-3.1-0.5V24.2z"/>
	<path class="st0" d="M96.4,23.8c-3.8,0-5.7,1.5-5.9,4.5H90l-0.4-4.1h-4.1v22.4h4.5V34c0-4.2,1.8-6.2,5.3-6.2c2.5,0,4,1.5,4,4.2
		v14.6h4.5V32.1C103.8,26.8,101.1,23.8,96.4,23.8z"/>
	<path class="st0" d="M120,23.8c-6.2,0-9.8,4.2-9.8,11.6S113.8,47,120,47c6.2,0,9.8-4.2,9.8-11.6S126.3,23.8,120,23.8z M120,43
		c-3.3,0-5.1-2.7-5.1-7.6s1.9-7.6,5.1-7.6s5.1,2.7,5.1,7.6S123.3,43,120,43z"/>
	<path class="st0" d="M146.8,27.8c2.3,0,4.4,1.2,5.7,3.2l3.4-2.6c-1.3-3-4.6-4.6-8.9-4.6c-7.3,0-11.4,4.3-11.4,11.6
		c0,7.5,4.3,11.6,11.9,11.6c2.3,0,4.9-0.1,7.2-0.6l-0.5-3.9c-2,0.3-4.1,0.5-6.2,0.5c-5.1,0-7.9-2.7-7.9-7.8
		C140.1,30.5,142.6,27.8,146.8,27.8z"/>
	<path class="st0" d="M170.7,23.8c-6.2,0-9.8,4.2-9.8,11.6s3.6,11.6,9.8,11.6c6.2,0,9.8-4.2,9.8-11.6S176.9,23.8,170.7,23.8z
		 M170.7,43c-3.3,0-5.1-2.7-5.1-7.6s1.9-7.6,5.1-7.6s5.1,2.7,5.1,7.6S174,43,170.7,43z"/>
	<path class="st0" d="M196.1,23.8c-6.4,0-10.1,4.3-10.1,11.6c0,7.5,4.3,11.6,11.9,11.6c1.7,0,3.9-0.1,6.5-0.6l-0.5-3.9
		c-1.9,0.4-3.6,0.6-5.5,0.6c-4.5,0-7.3-2-8.1-5.7h15.1c0.1-0.9,0.1-1.8,0.1-2.9C205.6,27.6,202.2,23.8,196.1,23.8z M190.2,34
		c0.4-4,2.5-6.2,6-6.2c3.4,0,5.4,2.2,5.4,6.2H190.2z"/>
	<path class="st0" d="M226.4,43c-3.8,0-4.6-1.5-4.6-5.1V15h-11.1v3.9h6.6v19.3c0,6.2,2.2,8.9,7.3,8.9c2.4,0,4.4-0.3,6.7-0.9
		l-0.5-3.9C229,42.8,227.7,43,226.4,43z"/>
	<path class="st0" d="M248.4,23.8c-3.8,0-5.7,1.5-5.9,4.5h-0.4V15h-4.5v31.7h4.5V34c0-4.3,1.8-6.4,5.3-6.4c2.5,0,4,1.6,4,4.4v14.6
		h4.5V32.1C255.8,26.8,253.1,23.8,248.4,23.8z"/>
	<path class="st0" d="M272,23.8c-6.2,0-9.8,4.2-9.8,11.6S265.8,47,272,47c6.2,0,9.8-4.2,9.8-11.6S278.3,23.8,272,23.8z M272,43
		c-3.3,0-5.1-2.7-5.1-7.6s1.9-7.6,5.1-7.6s5.1,2.7,5.1,7.6S275.3,43,272,43z"/>
	<path class="st0" d="M287.4,40.8c-1.7,0-3.1,1.4-3.1,3.1s1.4,3.1,3.1,3.1s3.1-1.4,3.1-3.1S289.1,40.8,287.4,40.8z"/>
</g>
</svg>
