<?xml version="1.0" encoding="utf-8"?>
<!-- Generator: Adobe Illustrator 25.2.1, SVG Export Plug-In . SVG Version: 6.00 Build 0)  -->
<svg version="1.1" id="Camada_1" xmlns="http://www.w3.org/2000/svg" xmlns:xlink="http://www.w3.org/1999/xlink" x="0px" y="0px"
	 viewBox="0 0 525 65" style="enable-background:new 0 0 525 65;" xml:space="preserve">
<style type="text/css">
	.st0{fill:#FFFFFF;}
</style>
<g>
	<path class="st0" d="M31.15,50.92L6.42,37.5l1-6.25L36.4,17.82l-0.87,5.81l-20.86,9.49c-0.83,0.38-1.61,0.7-2.34,0.97
		c-0.73,0.27-1.26,0.45-1.59,0.53c0.33,0.08,0.83,0.26,1.5,0.53c0.67,0.27,1.33,0.59,2,0.97l17.86,9.55L31.15,50.92z"/>
	<path class="st0" d="M40.64,54.98l7.24-45.59h13.99c4.41,0,7.74,1.05,9.99,3.15c2.25,2.1,3.08,4.97,2.5,8.59
		c-0.29,2.04-1.02,3.81-2.19,5.31c-1.17,1.5-2.6,2.66-4.31,3.5c-1.71,0.83-3.56,1.25-5.56,1.25v-0.25c2.21-0.04,4.1,0.36,5.68,1.22
		c1.58,0.85,2.76,2.11,3.53,3.78c0.77,1.67,0.95,3.69,0.53,6.06c-0.42,2.62-1.37,4.91-2.87,6.87c-1.5,1.96-3.42,3.47-5.78,4.53
		c-2.35,1.06-5.05,1.59-8.09,1.59H40.64z M49.26,48.49h6.62c2.29,0,4.18-0.61,5.68-1.84c1.5-1.23,2.41-2.9,2.75-5.03
		c0.33-2.12-0.05-3.84-1.16-5.15c-1.1-1.31-2.8-1.97-5.09-1.97h-6.62L49.26,48.49z M52.44,28.19h6.31c2.08,0,3.8-0.55,5.15-1.66
		c1.35-1.1,2.2-2.61,2.53-4.53c0.29-1.92-0.07-3.41-1.09-4.5c-1.02-1.08-2.57-1.62-4.65-1.62h-6.31L52.44,28.19z"/>
	<path class="st0" d="M79.17,54.98l5.43-34.35h7.37l-1.06,6.56h1.94l-2.94,4c0.58-3.71,1.86-6.5,3.84-8.37
		c1.98-1.87,4.59-2.81,7.84-2.81c3.71,0,6.43,1.15,8.18,3.43c1.75,2.29,2.31,5.46,1.69,9.49l-0.44,2.5h-8.18l0.38-1.94
		c0.33-2.21,0.03-3.91-0.91-5.12c-0.94-1.21-2.4-1.81-4.4-1.81c-2.04,0-3.72,0.6-5.03,1.81c-1.31,1.21-2.13,2.92-2.47,5.12
		l-3.44,21.48H79.17z"/>
	<path class="st0" d="M129.38,55.61c-4.37,0-7.61-1.22-9.71-3.65c-2.1-2.44-2.82-5.76-2.15-9.96l3.37-21.36h7.81l-3.37,21.3
		c-0.33,2.21-0.05,3.9,0.84,5.09c0.9,1.19,2.32,1.78,4.28,1.78c1.96,0,3.59-0.59,4.9-1.78c1.31-1.19,2.13-2.88,2.47-5.09l3.37-21.3
		H149l-3.37,21.36c-0.42,2.79-1.36,5.21-2.84,7.24c-1.48,2.04-3.36,3.61-5.65,4.71C134.84,55.06,132.26,55.61,129.38,55.61z"/>
	<path class="st0" d="M153.05,54.98l5.43-34.35h7.62l-1.06,6.56h2.12L164.79,29c0.46-2.83,1.63-5.04,3.53-6.62
		c1.89-1.58,4.28-2.37,7.15-2.37c3.37,0,5.89,1.12,7.56,3.37c1.66,2.25,2.19,5.27,1.56,9.06l-3.56,22.55h-7.81l3.44-21.73
		c0.33-2.08,0.04-3.68-0.87-4.81c-0.92-1.12-2.33-1.69-4.25-1.69c-1.96,0-3.57,0.58-4.84,1.75c-1.27,1.17-2.09,2.83-2.47,5
		l-3.37,21.48H153.05z"/>
	<path class="st0" d="M204.33,55.61c-2.91,0-5.35-0.55-7.31-1.66c-1.96-1.1-3.35-2.66-4.18-4.68c-0.83-2.02-1.04-4.4-0.62-7.15
		l1.37-8.62c0.46-2.75,1.43-5.13,2.9-7.15c1.48-2.02,3.37-3.58,5.68-4.68c2.31-1.1,4.92-1.65,7.84-1.65c2.96,0,5.4,0.55,7.34,1.65
		c1.94,1.1,3.33,2.67,4.18,4.68c0.85,2.02,1.05,4.38,0.59,7.09l-1.37,8.68c-0.42,2.75-1.37,5.13-2.87,7.15s-3.39,3.58-5.68,4.68
		C209.91,55.06,207.28,55.61,204.33,55.61z M205.45,48.8c2.08,0,3.77-0.57,5.06-1.72c1.29-1.14,2.1-2.8,2.44-4.96l1.37-8.62
		c0.33-2.17,0.04-3.82-0.87-4.97c-0.92-1.14-2.44-1.72-4.56-1.72c-2.04,0-3.71,0.57-5,1.72c-1.29,1.15-2.12,2.8-2.5,4.97l-1.37,8.62
		c-0.33,2.16-0.03,3.82,0.91,4.96C201.86,48.23,203.37,48.8,205.45,48.8z"/>
	<path class="st0" d="M242.05,55.61c-2.92,0-5.38-0.55-7.4-1.66c-2.02-1.1-3.46-2.66-4.31-4.68c-0.85-2.02-1.07-4.4-0.66-7.15
		l3.12-19.86c0.46-2.79,1.45-5.18,2.97-7.18c1.52-2,3.46-3.55,5.81-4.65c2.35-1.1,4.99-1.66,7.9-1.66c2.96,0,5.41,0.55,7.37,1.66
		c1.96,1.1,3.38,2.66,4.28,4.68c0.9,2.02,1.11,4.4,0.66,7.15h-7.81c0.38-2.16,0.07-3.81-0.91-4.93c-0.98-1.12-2.53-1.69-4.65-1.69
		s-3.86,0.56-5.21,1.69c-1.35,1.12-2.2,2.75-2.53,4.87l-3.19,19.92c-0.33,2.12,0,3.76,1,4.9c1,1.14,2.56,1.72,4.68,1.72
		c2.08,0,3.8-0.57,5.15-1.72c1.35-1.14,2.2-2.78,2.53-4.9h7.81c-0.42,2.71-1.38,5.08-2.9,7.12c-1.52,2.04-3.45,3.61-5.78,4.71
		C247.65,55.06,245,55.61,242.05,55.61z"/>
	<path class="st0" d="M279.27,55.61c-2.92,0-5.35-0.55-7.31-1.66c-1.96-1.1-3.35-2.66-4.19-4.68s-1.04-4.4-0.62-7.15l1.37-8.62
		c0.46-2.75,1.43-5.13,2.9-7.15c1.48-2.02,3.37-3.58,5.68-4.68c2.31-1.1,4.92-1.65,7.84-1.65c2.96,0,5.4,0.55,7.34,1.65
		c1.94,1.1,3.33,2.67,4.18,4.68c0.85,2.02,1.05,4.38,0.59,7.09l-1.37,8.68c-0.42,2.75-1.37,5.13-2.87,7.15s-3.39,3.58-5.68,4.68
		C284.85,55.06,282.22,55.61,279.27,55.61z M280.39,48.8c2.08,0,3.77-0.57,5.06-1.72c1.29-1.14,2.1-2.8,2.44-4.96l1.37-8.62
		c0.33-2.17,0.04-3.82-0.88-4.97c-0.92-1.14-2.44-1.72-4.56-1.72c-2.04,0-3.71,0.57-5,1.72c-1.29,1.15-2.12,2.8-2.5,4.97l-1.37,8.62
		c-0.33,2.16-0.03,3.82,0.91,4.96C276.8,48.23,278.31,48.8,280.39,48.8z"/>
	<path class="st0" d="M316.8,55.61c-2.92,0-5.35-0.56-7.31-1.69c-1.96-1.12-3.36-2.7-4.21-4.71c-0.85-2.02-1.07-4.38-0.66-7.09
		L306,33.5c0.46-2.71,1.44-5.07,2.94-7.09c1.5-2.02,3.4-3.59,5.71-4.72s4.92-1.69,7.84-1.69c2.87,0,5.29,0.56,7.24,1.69
		s3.36,2.7,4.22,4.72c0.85,2.02,1.05,4.38,0.59,7.09l-1,6.18h-20.98l-0.44,2.44c-0.33,2.41-0.03,4.24,0.91,5.46
		c0.94,1.23,2.55,1.84,4.84,1.84c1.75,0,3.19-0.3,4.34-0.91c1.14-0.6,1.95-1.49,2.4-2.65h7.74c-0.71,1.96-1.82,3.66-3.34,5.12
		c-1.52,1.46-3.32,2.59-5.4,3.4S319.26,55.61,316.8,55.61z M326.73,35.31l0.31-1.87c0.37-2.37,0.1-4.19-0.81-5.46
		c-0.92-1.27-2.5-1.9-4.75-1.9s-4.05,0.65-5.4,1.94c-1.35,1.29-2.22,3.12-2.59,5.5l-0.19,1.31l14.11-0.12L326.73,35.31z"/>
	<path class="st0" d="M359.33,54.98c-3.42,0-5.99-1.02-7.71-3.06c-1.73-2.04-2.32-4.72-1.78-8.06l4.31-27.42h-10.49l1.12-7.06h18.3
		l-5.43,34.47c-0.21,1.25-0.01,2.24,0.59,2.97s1.51,1.09,2.72,1.09h10.62l-1.06,7.06H359.33z"/>
	<path class="st0" d="M377.88,54.98l7.25-45.59h7.81l-1.81,11.24l-1.25,6.56h2.12L389.62,29c0.46-2.83,1.63-5.04,3.53-6.62
		c1.89-1.58,4.28-2.37,7.15-2.37c3.37,0,5.89,1.12,7.56,3.37c1.67,2.25,2.19,5.27,1.56,9.06l-3.56,22.55h-7.81l3.43-21.73
		c0.33-2.08,0.04-3.68-0.87-4.81c-0.92-1.12-2.33-1.69-4.25-1.69c-1.96,0-3.57,0.58-4.84,1.75c-1.27,1.17-2.09,2.83-2.47,5
		l-3.37,21.48H377.88z"/>
	<path class="st0" d="M429.15,55.61c-2.92,0-5.35-0.55-7.31-1.66c-1.96-1.1-3.35-2.66-4.18-4.68c-0.83-2.02-1.04-4.4-0.62-7.15
		l1.37-8.62c0.46-2.75,1.43-5.13,2.9-7.15c1.48-2.02,3.37-3.58,5.68-4.68c2.31-1.1,4.92-1.65,7.84-1.65c2.96,0,5.4,0.55,7.34,1.65
		c1.94,1.1,3.33,2.67,4.18,4.68c0.85,2.02,1.05,4.38,0.59,7.09l-1.37,8.68c-0.42,2.75-1.37,5.13-2.87,7.15s-3.39,3.58-5.68,4.68
		C434.73,55.06,432.11,55.61,429.15,55.61z M430.28,48.8c2.08,0,3.77-0.57,5.06-1.72c1.29-1.14,2.1-2.8,2.44-4.96l1.37-8.62
		c0.33-2.17,0.04-3.82-0.88-4.97c-0.92-1.14-2.44-1.72-4.56-1.72c-2.04,0-3.71,0.57-5,1.72c-1.29,1.15-2.12,2.8-2.5,4.97l-1.37,8.62
		c-0.33,2.16-0.03,3.82,0.91,4.96C426.69,48.23,428.19,48.8,430.28,48.8z"/>
	<path class="st0" d="M453.82,61.85l31.41-58.71h5.93l-5.75,10.8l33.16,17.3l-1,6.25l-28.98,13.43l0.94-5.93l20.8-9.43
		c0.83-0.38,1.61-0.68,2.34-0.91c0.73-0.23,1.28-0.38,1.66-0.47c-0.38-0.08-0.89-0.24-1.53-0.47c-0.65-0.23-1.32-0.53-2.03-0.91
		l-27.73-14.55l-23.29,43.59H453.82z"/>
</g>
</svg>
