<?xml version="1.0" encoding="utf-8"?>
<!-- Generator: Adobe Illustrator 25.2.1, SVG Export Plug-In . SVG Version: 6.00 Build 0)  -->
<svg version="1.1" id="Logo" xmlns="http://www.w3.org/2000/svg" xmlns:xlink="http://www.w3.org/1999/xlink" x="0px" y="0px"
	 viewBox="0 0 340 96" style="enable-background:new 0 0 340 96;" xml:space="preserve">
<style type="text/css">
	.st0{fill:#FFFFFF;}
</style>
<g>
	<path class="st0" d="M12.29,52.75v-9.42l36-13.29v9.49l-26.58,8.19v0.63l26.58,8.19v9.49L12.29,52.75z"/>
	<path class="st0" d="M54.29,23.04h15.43c10.51,0,16.49,4.46,16.49,12.38c0,6.47-4.22,10.27-11.67,10.58v1.16h1.62
		c8.65,0,13.57,4.39,13.57,12.09c0,8.72-5.7,13.71-15.71,13.71H54.29V23.04z M69.86,42.3c4.36,0,6.61-1.9,6.61-5.62
		c0-3.38-2.39-5.1-7.1-5.1h-5.8V42.3H69.86z M71.97,64.42c5.06,0,8.02-2.5,8.02-6.82c0-4.25-3.09-6.71-8.51-6.71h-7.91v13.54H71.97z
		"/>
	<path class="st0" d="M111.03,64.8h8.72v8.16H93.66V64.8h7.88V43.85h-6.47V35.7h14.55l1.09,8.4h1.34c0.39-6.12,3.52-9.11,9.53-9.11
		c7.07,0,10.97,5.38,10.97,15.15h-9.49c0-4.39-1.55-6.19-5.1-6.19c-4.64,0-6.93,4.68-6.93,12.97V64.8z"/>
	<path class="st0" d="M138.17,60.3V35.7h9.53v22.25c0,4.29,2.04,6.68,5.48,6.68c4.46,0,6.75-3.13,6.75-11.25V35.7h9.53v28.76
		l5.13,0.77v7.73l-14.03,0.35l-0.53-7.52h-1.09c-1.16,5.06-4.71,7.88-9.63,7.88C142.21,73.66,138.17,68.81,138.17,60.3z"/>
	<path class="st0" d="M203.17,51.06c0-4.5-1.93-7.03-5.34-7.03c-4.75,0-7.17,3.41-7.17,10.34v18.6h-9.53V35.7h8.51l0.88,6.75h1.05
		c0.7-4.99,3.2-7.45,8.75-7.45c7.88,0,12.38,4.99,12.38,13.71v24.26h-9.53V51.06z"/>
	<path class="st0" d="M222.19,54.33c0-12.3,6.19-19.34,16.91-19.34s16.91,7.03,16.91,19.34s-6.19,19.34-16.91,19.34
		S222.19,66.63,222.19,54.33z M246.27,54.33c0-6.61-2.6-10.3-7.17-10.3c-4.54,0-7.17,3.69-7.17,10.3c0,6.57,2.64,10.3,7.17,10.3
		C243.67,64.63,246.27,60.9,246.27,54.33z"/>
	<path class="st0" d="M294.07,56.54l22.54-7.91v-1.2l-30.8-11.71l-18.91,43.91h-9.67l27.25-63.28h9.67l-4.89,11.36l38.46,15.61v9.42
		l-33.64,13.29V56.54z"/>
</g>
</svg>
