<?xml version="1.0" encoding="utf-8"?>
<!-- Generator: Adobe Illustrator 25.2.1, SVG Export Plug-In . SVG Version: 6.00 Build 0)  -->
<svg version="1.1" id="Camada_1" xmlns="http://www.w3.org/2000/svg" xmlns:xlink="http://www.w3.org/1999/xlink" x="0px" y="0px"
	 viewBox="0 0 140 140" style="enable-background:new 0 0 140 140;" xml:space="preserve">
<g>
	<path d="M109.12,70.02l29.49-38.8h-3.82c-2.72,0-5.27,1.27-6.92,3.43l-22.82,30.03L82.24,34.64c-1.64-2.16-4.2-3.43-6.92-3.43H71.5
		L101,70.02l-30.87,40.61h3.82c2.72,0,5.27-1.27,6.92-3.43l24.2-31.84l24.2,31.84c1.64,2.16,4.2,3.43,6.92,3.43H140L109.12,70.02z"
		/>
	<path d="M61.72,89.11c-5.62,11.62-18.71,18.95-33.06,15.65c-13.23-3.04-22.2-15.43-22.2-29v-2.53h64.64v-9.7
		c0-21.57-19.22-38.66-41.47-35.08C12.32,31.25,0,46.91,0,64.45v2.31v6.46v0.46c0,21.18,15.44,38.09,35.13,38.33
		c16.46,0.19,30.35-10.81,34.61-25.85h-3.32C64.41,86.16,62.59,87.31,61.72,89.11z M6.46,65.83c0-15.22,9.06-27.66,22.38-30.63
		c18.99-4.24,35.8,10.08,35.8,28.34v3.23H6.46V65.83z"/>
</g>
</svg>
