<?xml version="1.0" encoding="utf-8"?>
<!-- Generator: Adobe Illustrator 25.2.1, SVG Export Plug-In . SVG Version: 6.00 Build 0)  -->
<svg version="1.1" id="Camada_1" xmlns="http://www.w3.org/2000/svg" xmlns:xlink="http://www.w3.org/1999/xlink" x="0px" y="0px"
	 viewBox="0 0 140 140" style="enable-background:new 0 0 140 140;" xml:space="preserve">
<path d="M93.53,85.56c2.68-1.83,6.4-3.42,6.4-3.42s-10.58,1.91-21.11,2.79c-12.88,1.07-26.71,1.29-33.66,0.36
	c-16.43-2.19,9.02-8.23,9.02-8.23s-9.87-0.66-22.04,5.2C17.79,89.19,67.69,92.37,93.53,85.56z M70.18,76.78
	c-5.2-11.68-22.72-21.93,0-39.87C98.52,14.55,83.98,0,83.98,0c5.88,23.11-20.67,30.11-30.27,44.46
	C47.18,54.28,56.91,64.8,70.18,76.78z M101.51,28.6c0.03,0-47.91,11.98-25.02,38.34c6.75,7.77-1.78,14.77-1.78,14.77
	s17.14-8.86,9.27-19.93C76.63,51.43,71,46.29,101.51,28.6z M99.84,102.57c-0.15,0.26-0.33,0.5-0.55,0.71
	c35.08-9.21,22.18-32.51,5.41-26.61c-0.91,0.33-1.69,0.93-2.24,1.72c0.98-0.35,1.98-0.63,3.01-0.82
	C113.95,75.8,126.12,88.92,99.84,102.57L99.84,102.57z M112.74,119.6c0,0,3.96,3.25-4.35,5.8c-15.83,4.79-65.84,6.23-79.73,0.19
	c-5-2.16,4.37-5.2,7.33-5.82c3.06-0.66,4.84-0.55,4.84-0.55c-5.55-3.91-35.9,7.68-15.42,10.99
	C81.25,139.29,127.23,126.14,112.74,119.6z M51.61,108.28c-21.52,6.02,13.1,18.43,40.5,6.7c-2.67-1.04-5.25-2.3-7.71-3.77
	c-12.22,2.32-17.88,2.49-28.98,1.23C46.25,111.4,51.61,108.28,51.61,108.28z M100.77,134.86c-21.52,4.05-48.07,3.58-63.79,0.98
	c0-0.03,3.23,2.65,19.8,3.72c25.21,1.61,63.93-0.9,64.83-12.82C121.61,126.74,119.86,131.25,100.77,134.86L100.77,134.86z
	 M88.85,96.52c-16.19,3.12-25.57,3.04-37.41,1.8c-9.16-0.96-3.17-5.39-3.17-5.39c-23.73,7.87,13.18,16.79,46.35,7.08
	C92.48,99.27,90.51,98.07,88.85,96.52z"/>
</svg>
