<?xml version="1.0" encoding="utf-8"?>
<!-- Generator: Adobe Illustrator 25.2.1, SVG Export Plug-In . SVG Version: 6.00 Build 0)  -->
<svg version="1.1" id="Camada_2" xmlns="http://www.w3.org/2000/svg" xmlns:xlink="http://www.w3.org/1999/xlink" x="0px" y="0px"
	 viewBox="0 0 140 140" style="enable-background:new 0 0 140 140;" xml:space="preserve">
<path d="M71.4,118.2c-0.9-0.2-1.8-0.5-2.7-0.8l-0.7-0.2c-0.9-0.3-1.8-0.6-2.6-0.9l-0.4-0.1c-0.8-0.3-1.6-0.6-2.3-0.9l-0.7-0.3
	c-0.8-0.3-1.7-0.7-2.5-1l-0.5-0.2c-0.7-0.3-1.4-0.6-2.1-1l-0.6-0.3c-0.6-0.3-1.1-0.6-1.6-0.8c-0.4-0.2-0.7-0.4-1.1-0.6
	c-0.7-0.4-1.3-0.7-2-1.1l-0.7-0.4c-0.9-0.5-1.7-1-2.6-1.6l-0.7-0.5c-0.6-0.4-1.2-0.8-1.8-1.2l-0.6-0.4c-0.6-0.4-1.2-0.8-1.7-1.2
	l-0.8-0.6c-0.5-0.4-1-0.8-1.6-1.2l-0.7-0.6c-0.7-0.5-1.3-1.1-1.9-1.6l-0.2-0.2c-0.7-0.6-1.4-1.2-2-1.9l-0.6-0.6
	c-0.5-0.5-1-0.9-1.5-1.4l-0.6-0.6c-0.6-0.6-1.2-1.3-1.8-1.9l-0.1-0.1c-0.6-0.7-1.2-1.4-1.8-2.1l-0.5-0.6c-0.4-0.5-0.9-1.1-1.3-1.6
	l-0.5-0.6c-0.5-0.7-1-1.3-1.5-2C12.6,68.8,7.7,43.1,18.6,22L8.9,34.2C-3.5,52.1-2,75.2,7.5,94.2c0.2,0.5,0.5,0.9,0.7,1.3l0.4,0.9
	l0.3,0.5l0.5,0.9c0.3,0.5,0.6,1,0.9,1.5l0.5,0.8c0.3,0.6,0.7,1.1,1,1.6l0.4,0.7c0.5,0.7,1,1.5,1.5,2.2l0,0.1l0.3,0.3
	c0.4,0.6,0.9,1.2,1.4,1.8l0.5,0.7c0.4,0.5,0.8,1.1,1.3,1.6l0.5,0.6c0.6,0.7,1.2,1.4,1.8,2l0,0l0.1,0.1c0.6,0.6,1.2,1.3,1.8,1.9
	l0.6,0.6c0.5,0.5,1,0.9,1.4,1.4l0.6,0.6c0.7,0.6,1.3,1.2,2,1.8l0,0l0.3,0.3c0.6,0.5,1.2,1,1.8,1.5l0.7,0.6c0.5,0.4,1,0.8,1.5,1.2
	l0.8,0.6c0.6,0.4,1.1,0.8,1.7,1.2l0.6,0.4l0.2,0.1c0.5,0.4,1.1,0.7,1.6,1.1l0.7,0.5c0.8,0.5,1.7,1.1,2.6,1.6l0.7,0.4
	c0.6,0.4,1.3,0.7,1.9,1.1c0.4,0.2,0.7,0.4,1.1,0.5c0.5,0.2,0.9,0.5,1.4,0.7l0.3,0.2l0.6,0.3c0.7,0.3,1.4,0.7,2.2,1l0.5,0.2
	c0.8,0.4,1.7,0.7,2.5,1.1l0.6,0.2c0.8,0.3,1.6,0.6,2.4,0.9l0.3,0.1c0.9,0.3,1.8,0.6,2.7,0.9l0.6,0.2c0.9,0.3,1.8,0.6,2.8,0.8
	c59.9,10.9,77.4-36,77.4-36C122,118.8,96,123.8,71.4,118.2z M49.8,69.7c1.3,1.9,2.8,4.2,4.6,5.8c0.6,0.7,1.3,1.4,2,2.1L57,78
	c0.7,0.6,1.4,1.3,2.1,1.9l0.1,0.1l0,0c0.8,0.7,1.6,1.3,2.4,2l0.5,0.4c0.8,0.6,1.7,1.2,2.5,1.8l0.1,0.1c0.4,0.3,0.8,0.5,1.1,0.8
	l0.5,0.4c0.6,0.4,1.2,0.8,1.9,1.1l0.3,0.2c0.5,0.3,1.1,0.6,1.6,0.9l0.6,0.3c0.4,0.2,0.8,0.4,1.2,0.6l0.2,0.1
	c0.8,0.4,1.6,0.8,2.4,1.1L75,90c0.6,0.3,1.3,0.5,2,0.8l0.8,0.3c0.6,0.2,1.2,0.4,1.8,0.6l0.8,0.3c0.9,0.3,1.7,0.6,2.6,0.8
	c46.3,7.7,57-28,57-28c-9.6,13.9-28.3,20.5-48.2,15.3c-0.9-0.2-1.8-0.5-2.6-0.8l-0.8-0.3c-0.6-0.2-1.2-0.4-1.8-0.6l-0.8-0.3
	c-0.7-0.3-1.3-0.5-2-0.8l-0.5-0.2c-0.8-0.4-1.6-0.7-2.4-1.1c-0.4-0.2-0.8-0.4-1.2-0.6L78.9,75c-0.5-0.3-1-0.6-1.5-0.9L77,73.9
	c-0.6-0.4-1.2-0.7-1.9-1.1l-0.6-0.4c-0.4-0.3-0.8-0.5-1.2-0.8c-0.9-0.6-1.7-1.2-2.5-1.8l-0.6-0.4c-8.7-6.9-15.6-16.3-18.9-26.9
	C48,31.4,48.7,19,54.7,8.9l-7.3,10.3c-9,12.9-8.5,30.2-1.5,43.8C47.1,65.3,48.4,67.5,49.8,69.7L49.8,69.7z M98.6,53.7
	c0.4,0.1,0.8,0.3,1.1,0.4l0.5,0.2c0.5,0.2,1.1,0.4,1.6,0.5c25.6,4.9,32.5-13.1,34.3-15.8c-6.1,8.7-16.3,10.8-28.8,7.8
	c-1-0.2-2.1-0.6-3-0.9c-1.2-0.4-2.4-0.9-3.6-1.5c-2.2-1.1-4.3-2.4-6.3-3.8C83.3,32,76.4,15.8,83.7,2.6l-4,5.5
	c-5.3,7.8-5.8,17.4-2.1,26C81.5,43.2,89.4,50.3,98.6,53.7z"/>
</svg>
