<?xml version="1.0" encoding="utf-8"?>
<!-- Generator: Adobe Illustrator 25.2.1, SVG Export Plug-In . SVG Version: 6.00 Build 0)  -->
<svg version="1.1" id="Camada_1" xmlns="http://www.w3.org/2000/svg" xmlns:xlink="http://www.w3.org/1999/xlink" x="0px" y="0px"
	 viewBox="0 0 140 140" style="enable-background:new 0 0 140 140;" xml:space="preserve">
<path d="M0,0v140h140V0H0z M76.19,109.19c0,13.62-8,19.84-19.66,19.84c-10.53,0-16.62-5.44-19.75-12.03l10.72-6.47
	c2.06,3.66,3.94,6.75,8.47,6.75c4.31,0,7.06-1.69,7.06-8.28V64.28h13.16L76.19,109.19L76.19,109.19z M107.31,129.03
	c-12.22,0-20.12-5.81-23.97-13.44l10.72-6.19c2.81,4.59,6.5,8,12.97,8c5.44,0,8.94-2.72,8.94-6.5c0-4.5-3.56-6.09-9.59-8.75
	l-3.28-1.41c-9.5-4.03-15.78-9.12-15.78-19.84c0-9.88,7.53-17.38,19.25-17.38c8.37,0,14.38,2.91,18.69,10.53L115,80.62
	c-2.25-4.03-4.69-5.62-8.47-5.62c-3.84,0-6.28,2.44-6.28,5.62c0,3.94,2.44,5.53,8.09,8l3.28,1.41c11.19,4.78,17.47,9.69,17.47,20.69
	C129.09,122.53,119.78,129.03,107.31,129.03L107.31,129.03z"/>
</svg>
