<?xml version="1.0" encoding="utf-8"?>
<!-- Generator: Adobe Illustrator 25.2.1, SVG Export Plug-In . SVG Version: 6.00 Build 0)  -->
<svg version="1.1" id="Camada_1" xmlns="http://www.w3.org/2000/svg" xmlns:xlink="http://www.w3.org/1999/xlink" x="0px" y="0px"
	 viewBox="0 0 140 140" style="enable-background:new 0 0 140 140;" xml:space="preserve">
<path d="M137.93,31.67c-0.02-0.06-0.05-0.13-0.08-0.19c-0.04-0.12-0.09-0.23-0.14-0.34c-0.04-0.07-0.09-0.13-0.15-0.19
	c-0.06-0.09-0.13-0.18-0.2-0.26c-0.06-0.06-0.14-0.11-0.21-0.16c-0.08-0.07-0.16-0.13-0.25-0.19l-26.32-15.15
	c-0.68-0.39-1.51-0.39-2.19,0L82.07,30.35l0,0c-0.08,0.06-0.16,0.12-0.24,0.19c-0.07,0.05-0.15,0.1-0.21,0.16
	c-0.07,0.08-0.14,0.16-0.2,0.25c-0.05,0.07-0.11,0.12-0.15,0.19c-0.06,0.11-0.1,0.22-0.14,0.34c-0.02,0.06-0.06,0.12-0.08,0.19
	c-0.05,0.19-0.08,0.38-0.08,0.57v28.78L59.04,73.66V17.35c0-0.19-0.03-0.39-0.08-0.57c-0.02-0.07-0.05-0.12-0.08-0.19
	c-0.04-0.12-0.09-0.23-0.14-0.34c-0.04-0.07-0.1-0.13-0.15-0.2c-0.06-0.09-0.13-0.18-0.2-0.26c-0.07-0.06-0.14-0.11-0.21-0.16
	c-0.08-0.07-0.16-0.13-0.24-0.19l0,0L31.62,0.29c-0.68-0.39-1.51-0.39-2.19,0L3.11,15.45l0,0c-0.09,0.06-0.17,0.12-0.24,0.19
	c-0.08,0.05-0.15,0.1-0.22,0.16c-0.07,0.08-0.14,0.16-0.19,0.25c-0.05,0.07-0.11,0.13-0.15,0.2c-0.06,0.11-0.1,0.22-0.14,0.34
	c-0.03,0.06-0.06,0.12-0.08,0.18c-0.05,0.19-0.08,0.38-0.08,0.57v90.15c0,0.78,0.42,1.51,1.09,1.9l52.64,30.31
	c0.12,0.06,0.24,0.11,0.36,0.15c0.06,0.02,0.11,0.05,0.17,0.07c0.37,0.1,0.75,0.1,1.12,0c0.05-0.01,0.1-0.04,0.15-0.06
	c0.13-0.04,0.26-0.09,0.38-0.16l52.65-30.31c0.68-0.39,1.1-1.12,1.09-1.9V78.72L136.9,64.2c0.68-0.39,1.1-1.13,1.09-1.91V32.24
	C137.99,32.05,137.97,31.86,137.93,31.67z M30.52,4.73L30.52,4.73l21.93,12.62L30.52,29.97L8.59,17.35L30.52,4.73z M54.65,21.13
	v55.05l-12.72,7.33l-9.21,5.3V33.77l12.72-7.33L54.65,21.13z M54.65,134L6.39,106.23V21.14l9.21,5.3l12.72,7.33v58.84
	c0.01,0.08,0.02,0.16,0.03,0.25c0.01,0.11,0.02,0.22,0.04,0.32l0,0c0.03,0.08,0.06,0.17,0.1,0.25c0.03,0.09,0.07,0.19,0.11,0.27l0,0
	c0.05,0.07,0.11,0.15,0.16,0.21c0.05,0.08,0.12,0.16,0.18,0.23l0,0c0.06,0.06,0.14,0.1,0.21,0.16c0.07,0.06,0.15,0.13,0.24,0.18l0,0
	l0,0l25.21,14.27L54.65,134z M56.84,104.97L34.95,92.58l22.99-13.24l25.23-14.52l21.91,12.61L89,86.61L56.84,104.97z M107.29,106.22
	l-48.26,27.79v-25.24l35.74-20.4l12.52-7.15V106.22z M107.29,73.65l-9.21-5.29l-12.72-7.33v-25l9.21,5.3l12.72,7.33V73.65z
	 M109.48,44.86L87.55,32.23l21.93-12.62l21.92,12.62L109.48,44.86z M111.67,73.65V48.67l12.75-7.33l9.21-5.3v24.99l0,0L111.67,73.65
	z"/>
</svg>
