<?xml version="1.0" encoding="utf-8"?>
<!-- Generator: Adobe Illustrator 25.2.1, SVG Export Plug-In . SVG Version: 6.00 Build 0)  -->
<svg version="1.1" id="Camada_1" xmlns="http://www.w3.org/2000/svg" xmlns:xlink="http://www.w3.org/1999/xlink" x="0px" y="0px"
	 viewBox="0 0 140 140" style="enable-background:new 0 0 140 140;" xml:space="preserve">
<g>
	<path d="M71,61.1c-1,0-1,29-1,29c0,2.3,1.3,8.3,2.7,8.4C72.7,98.5,71.8,61.1,71,61.1z"/>
	<path d="M70,0C31.3,0,0,31.3,0,70s31.3,70,70,70s70-31.3,70-70S108.7,0,70,0z M76.7,98.8L76.7,98.8c-1,0.9-1.9,1.6-2.8,2.3
		l-0.1,0.1c-0.8,3.5-1.4,7.1-1.8,10.7h-1.7c-0.5-5.1-1.1-9.9-1.2-10v0l-0.2-0.2c-2.2-1.6-18.1-13.9-17.1-34.6
		c1.1-22.2,14-33.1,16.6-35.1c1.6-1.7,1.7-2.4,1.8-4.1c0,0.1,0.1,0.2,0.1,0.2c0,0,1.2,3.1,2.5,4.8c1.1,2.5,11.6,8.9,16,28.4v0
		c0.4,2.6,0.7,5.2,0.7,7.8C89.5,84.8,81.3,94.6,76.7,98.8z"/>
</g>
</svg>
