<?xml version="1.0" encoding="utf-8"?>
<!-- Generator: Adobe Illustrator 25.2.1, SVG Export Plug-In . SVG Version: 6.00 Build 0)  -->
<svg version="1.1" id="Camada_1" xmlns="http://www.w3.org/2000/svg" xmlns:xlink="http://www.w3.org/1999/xlink" x="0px" y="0px"
	 viewBox="0 0 140 140" style="enable-background:new 0 0 140 140;" xml:space="preserve">
<g>
	<path d="M138.48,135.38c-0.95-0.95-1.9-1.81-2.86-2.76c-2.76-3.71-6.19-6.95-9.9-9.62c-3.05-2.09-9.71-4.95-10.95-8.47
		c0,0-0.1-0.09-0.19-0.19c2.09-0.19,4.57-0.95,6.57-1.52c3.24-0.86,6.19-0.67,9.52-1.52c1.52-0.38,3.05-0.86,4.57-1.33v-0.86
		c-1.71-1.71-2.95-4-4.76-5.62c-4.86-4.19-10.19-8.28-15.71-11.71c-2.95-1.9-6.76-3.14-9.9-4.76c-1.14-0.57-3.05-0.86-3.71-1.81
		c-1.71-2.09-2.67-4.86-3.9-7.33c-2.76-5.24-5.43-11.05-7.81-16.57c-1.71-3.71-2.76-7.43-4.86-10.86
		c-9.81-16.19-20.47-25.99-36.85-35.61c-3.52-2-7.71-2.86-12.19-3.9c-2.38-0.1-4.76-0.29-7.14-0.38c-1.52-0.67-3.05-2.48-4.38-3.33
		C18.6,3.79,4.6-3.64,0.6,6.17c-2.57,6.19,3.81,12.28,6,15.43c1.62,2.19,3.71,4.67,4.86,7.14c0.67,1.62,0.86,3.33,1.52,5.05
		c1.52,4.19,2.95,8.86,4.95,12.76c1.05,2,2.19,4.09,3.52,5.9c0.76,1.05,2.09,1.52,2.38,3.24c-1.33,1.9-1.43,4.76-2.19,7.14
		c-3.43,10.76-2.09,24.09,2.76,31.99c1.52,2.38,5.14,7.62,10,5.62c4.28-1.71,3.33-7.14,4.57-11.9c0.29-1.14,0.1-1.9,0.67-2.67
		c0,0.09,0,0.19,0,0.19c1.33,2.67,2.67,5.24,3.9,7.9c2.95,4.67,8.09,9.52,12.38,12.76c2.29,1.71,4.09,4.67,6.95,5.71v-0.29h-0.19
		c-0.57-0.86-1.43-1.24-2.19-1.9c-1.71-1.71-3.62-3.81-4.95-5.71c-4-5.33-7.52-11.24-10.66-17.33c-1.52-2.95-2.86-6.19-4.09-9.14
		c-0.57-1.14-0.57-2.86-1.52-3.43c-1.43,2.09-3.52,3.9-4.57,6.47c-1.81,4.09-2,9.14-2.67,14.38c-0.38,0.1-0.19,0-0.38,0.19
		c-3.05-0.76-4.09-3.9-5.24-6.57c-2.86-6.76-3.33-17.62-0.86-25.42c0.67-2,3.52-8.28,2.38-10.19c-0.57-1.81-2.48-2.86-3.52-4.28
		c-1.24-1.81-2.57-4.09-3.43-6.09c-2.29-5.33-3.43-11.24-5.9-16.57c-1.14-2.48-3.14-5.05-4.76-7.33c-1.81-2.57-3.81-4.38-5.24-7.43
		c-0.48-1.05-1.14-2.76-0.38-3.9c0.19-0.76,0.57-1.05,1.33-1.24c1.24-1.05,4.76,0.29,6,0.86c3.52,1.43,6.47,2.76,9.43,4.76
		c1.33,0.95,2.76,2.76,4.47,3.24h2c3.05,0.67,6.47,0.19,9.33,1.05c5.05,1.62,9.62,4,13.71,6.57c12.47,7.9,22.76,19.14,29.71,32.56
		c1.14,2.19,1.62,4.19,2.67,6.47c2,4.67,4.48,9.43,6.47,14c2,4.47,3.9,9.05,6.76,12.76c1.43,2,7.14,3.05,9.71,4.09
		c1.9,0.86,4.86,1.62,6.57,2.67c3.24,2,6.47,4.28,9.52,6.47c1.52,1.14,6.28,3.52,6.57,5.43c-7.62-0.19-13.52,0.57-18.47,2.67
		c-1.43,0.57-3.71,0.57-3.9,2.38c0.76,0.76,0.86,2,1.52,3.05c1.14,1.9,3.14,4.48,4.95,5.81c2,1.52,4,3.05,6.09,4.38
		c3.71,2.29,7.9,3.62,11.52,5.9c2.1,1.33,4.19,3.05,6.28,4.48c1.05,0.76,1.71,2,3.05,2.48v-0.29
		C139.33,137.57,139.14,136.33,138.48,135.38z"/>
	<path d="M36.13,30.6c-1.29,0-2.21,0.15-3.12,0.38c0,0,0,0.08,0,0.15h0.15c0.61,1.22,1.67,2.05,2.43,3.12
		c0.61,1.22,1.14,2.44,1.75,3.65c0.08-0.08,0.15-0.15,0.15-0.15c1.07-0.76,1.6-1.98,1.6-3.8c-0.46-0.53-0.53-1.07-0.91-1.6
		C37.73,31.59,36.74,31.21,36.13,30.6z"/>
</g>
</svg>
