<?xml version="1.0" encoding="utf-8"?>
<!-- Generator: Adobe Illustrator 25.2.1, SVG Export Plug-In . SVG Version: 6.00 Build 0)  -->
<svg version="1.1" id="Camada_1" xmlns="http://www.w3.org/2000/svg" xmlns:xlink="http://www.w3.org/1999/xlink" x="0px" y="0px"
	 viewBox="0 0 140 140" style="enable-background:new 0 0 140 140;" xml:space="preserve">
<path d="M69.97,140c-1.86,0-3.75-0.5-5.39-1.44l-17.14-10.14c-2.56-1.44-1.31-1.94-0.47-2.22c3.42-1.19,4.11-1.44,7.75-3.53
	c0.39-0.22,0.89-0.14,1.28,0.11l13.17,7.81c0.47,0.28,1.14,0.28,1.58,0l51.31-29.61c0.47-0.28,0.78-0.83,0.78-1.39V40.35
	c0-0.58-0.31-1.11-0.81-1.42L70.75,9.35c-0.47-0.28-1.11-0.28-1.58,0L17.91,38.96c-0.5,0.28-0.81,0.83-0.81,1.42v59.2
	c0,0.56,0.31,1.11,0.81,1.36l14.06,8.11c7.64,3.81,12.31-0.67,12.31-5.19V45.41c0-0.83,0.67-1.47,1.5-1.47h6.5
	c0.81,0,1.5,0.64,1.5,1.47v58.48c0,10.17-5.56,16-15.2,16c-2.97,0-5.31,0-11.81-3.22l-13.45-7.75c-3.33-1.92-5.39-5.5-5.39-9.36
	v-59.2c0-3.83,2.06-7.45,5.39-9.36L64.58,1.38c3.25-1.83,7.56-1.83,10.78,0l51.31,29.64c3.33,1.92,5.39,5.5,5.39,9.36v59.2
	c0,3.83-2.06,7.42-5.39,9.36l-51.31,29.61C73.72,139.5,71.86,140,69.97,140z M111.39,81.63c0-11.08-7.5-14.03-23.25-16.11
	c-15.95-2.11-17.56-3.19-17.56-6.92c0-3.08,1.36-7.2,13.17-7.2c10.53,0,14.42,2.28,16.03,9.39c0.14,0.67,0.75,1.17,1.44,1.17h6.67
	c0.42,0,0.81-0.17,1.08-0.47c0.28-0.31,0.42-0.72,0.39-1.14c-1.03-12.25-9.17-17.95-25.61-17.95c-14.64,0-23.36,6.17-23.36,16.53
	c0,11.22,8.7,14.33,22.72,15.72c16.81,1.64,18.11,4.11,18.11,7.42c0,5.72-4.61,8.17-15.42,8.17c-13.58,0-16.56-3.42-17.56-10.17
	c-0.11-0.72-0.72-1.25-1.47-1.25h-6.64c-0.83,0-1.47,0.67-1.47,1.47c0,8.64,4.69,18.95,27.17,18.95
	C102.06,99.22,111.39,92.8,111.39,81.63L111.39,81.63z"/>
</svg>
