<?xml version="1.0" encoding="utf-8"?>
<!-- Generator: Adobe Illustrator 25.2.1, SVG Export Plug-In . SVG Version: 6.00 Build 0)  -->
<svg version="1.1" id="Camada_1" xmlns="http://www.w3.org/2000/svg" xmlns:xlink="http://www.w3.org/1999/xlink" x="0px" y="0px"
	 viewBox="0 0 140 140" style="enable-background:new 0 0 140 140;" xml:space="preserve">
<path d="M70,36.86c37.49,0,66.32,15.79,66.32,33.14S107.47,103.14,70,103.14C32.51,103.14,3.67,87.35,3.67,70S32.53,36.86,70,36.86
	 M70,33.18C31.35,33.18,0,49.66,0,70s31.35,36.82,70,36.82S140,90.34,140,70S108.65,33.18,70,33.18z M47.73,67.05
	C46,75.91,39.9,74.99,32.4,74.99l3-15.44C43.71,59.54,49.35,58.65,47.73,67.05L47.73,67.05z M21.31,90.63h8.03l1.9-9.8
	c8.99,0,14.57,0.66,19.73-4.18c5.71-5.25,7.2-14.59,3.13-19.27c-2.12-2.45-5.53-3.65-10.17-3.65H28.46L21.31,90.63z M61.93,43.9
	h7.98l-1.9,9.8c6.89,0,13.28-0.5,16.36,2.34c3.24,2.98,1.68,6.78-1.82,24.74h-8.09c3.37-17.37,4-18.81,2.78-20.12
	c-1.18-1.27-3.87-1.01-10.37-1.01l-4.11,21.13h-7.98L61.93,43.9L61.93,43.9z M110.47,67.05c-1.75,8.99-8.03,7.94-15.33,7.94l3-15.44
	C106.49,59.54,112.09,58.65,110.47,67.05L110.47,67.05z M84.04,90.63h8.05l1.9-9.8c9.45,0,14.68,0.55,19.73-4.18
	c5.71-5.25,7.2-14.59,3.13-19.27c-2.12-2.45-5.53-3.65-10.17-3.65H91.22L84.04,90.63z"/>
</svg>
