<?xml version="1.0" encoding="utf-8"?>
<!-- Generator: Adobe Illustrator 25.2.1, SVG Export Plug-In . SVG Version: 6.00 Build 0)  -->
<svg version="1.1" id="Camada_1" xmlns="http://www.w3.org/2000/svg" xmlns:xlink="http://www.w3.org/1999/xlink" x="0px" y="0px"
	 viewBox="0 0 140 140" style="enable-background:new 0 0 140 140;" xml:space="preserve">
<g>
	<polygon points="128.1,87 128.1,87 128.1,87 128.1,87 	"/>
	<path d="M112.7,87.1c-0.7-0.3-1.4-0.7-1.9-1.2l0,0v0l0,0c-0.8,0.3-1.5,0.4-2.1,0.7c-0.6,0.2-1.1,0.7-1.4,1.2l0,0
		c-0.4,0.7-0.7,1.9-0.6,3.9c0.2,0.2,0.5,0.3,0.8,0.4l0,0c1,0.3,2.6,0.5,4.5,0.5c3.7,0,8.2-0.9,10.6-2c2.1-1,3.8-2.2,5.4-3.6
		C120,88.7,115.5,88.2,112.7,87.1z"/>
	<polygon points="102.6,24.3 102.6,24.2 102.6,24.3 	"/>
	<path d="M89.3,8.8l-0.3,0.1C89,8.8,89.2,8.8,89.3,8.8C89.3,8.8,89.3,8.8,89.3,8.8z"/>
	<path d="M41.3,66c0-1,0.1-2.1,0.2-3.1l0,0.1c0.6-4.3,0.7-8.3,0.6-11.5c-0.1-3.1-0.3-5.2-0.3-6.5c0,0,0,0,0-0.1c0,0,0,0,0-0.1v0l0,0
		v0c0,0,0,0,0,0c0-6.9,1.2-13.5,3.4-19.7c1.6-4.3,4-8.7,7.6-12.3c-3.5-1.2-9.8-3-16.6-3.3c-0.7,0-1.4-0.1-2.2-0.1h0v0
		c-0.7,0-1.5,0-2.2,0.1c-5.8,0.3-11.3,2-15.3,6.3c-3.9,4.2-6.5,11.1-6,22.6c0.1,2.2,1,8.2,2.6,15.5c1.6,7.2,3.9,15.7,6.6,23.2
		c2.7,7.5,6,14,9.2,17.1c1.6,1.5,3,2.2,4.2,2.1c1.2-0.1,2.8-0.8,4.6-3c3.6-4.4,7-8.3,10.5-12.1l-0.1,0.1C44,77.6,41.3,72.1,41.3,66z
		"/>
	<path d="M65.7,86.8c-0.3-0.2-0.7-0.3-1.2-0.3h0v0h-0.1c-0.3,0-0.7,0.1-1.6,1.1c-2,2.3-2.7,3.7-4.4,5c-1.7,1.3-3.8,2-8.1,2.9
		c-1.4,0.3-2.1,0.6-2.7,0.8c0.2,0.1,0.2,0.2,0.4,0.3c0.6,0.3,1.4,0.7,2.1,0.8c1.8,0.5,4.9,1,8,0.5c3.2-0.5,6.5-2.1,9.3-6.1
		c0.5-0.7,0.5-1.7,0.1-2.8S66.3,87.1,65.7,86.8z"/>
	<path d="M109.7,40.5c-1.3-0.2-2.8-0.3-4.3-0.3c-3.9,0.1-6.1,1.1-7.3,2.4c-1.6,1.9-1.8,5.2-0.8,9.3c1,4.1,3.1,8.7,5.1,12.5
		c1,1.9,1.9,3.6,2.7,5c0.8,1.4,1.3,2.4,1.7,3.2c0.3,0.8,0.7,1.5,1,2.1c1.5-3.2,1.8-6.4,1.6-9.7c-0.2-4.1-1.1-8.3-1-12.5
		C108.7,47.6,109.7,44.4,109.7,40.5z M106.2,43.2C106.2,43.3,106.2,43.3,106.2,43.2c0,0.3-0.1,0.6-0.2,0.8l0,0
		c-0.2,0.3-0.4,0.6-0.6,0.9c-0.6,0.6-1.3,1.1-2.2,1.2l0,0c-0.1,0-0.3,0-0.4,0c-0.7,0-1.4-0.2-2-0.6l0,0c-0.3-0.2-0.5-0.4-0.7-0.7
		l0,0c-0.2-0.2-0.3-0.5-0.4-0.7v0c0,0,0-0.1,0-0.1c0-0.3,0.1-0.5,0.3-0.7c0.2-0.2,0.4-0.4,0.7-0.5l0,0c0.6-0.3,1.3-0.5,2.1-0.7
		c0.3,0,0.6-0.1,0.9-0.1v0h0.3c0.4,0,0.7,0.1,1,0.1c0.3,0.1,0.6,0.2,0.8,0.3C106,42.7,106.2,42.9,106.2,43.2L106.2,43.2z"/>
	<path d="M108.5,82.5c-0.5-0.7-1-1.4-1.5-2l0.1,0.1c-1.5-1.8-2.8-4-3.8-6.2l-0.1-0.2c-0.6-1.2-1.1-2.1-1.6-3l0.1,0.2
		c-0.8-1.4-1.7-3.2-2.7-5.1c-2-3.9-4.2-8.7-5.4-13.4c-1.1-4.6-1.3-9.5,1.6-12.8c2.6-3,7.1-4.3,14-3.6c-0.2-0.6-0.3-1.1-0.7-1.9
		c-1.7-3.9-3.7-7.3-6-10.3C96.8,16.8,87.4,9.4,73,9.1h-0.6v0c-6.8,0-11.7,2.1-15.4,5.2c-3.8,3.2-6.4,7.6-8.1,12.2
		c-2,5.4-2.7,10.6-3,14.1l0.1,0c2.1-1.2,4.8-2.3,7.7-3c2.9-0.7,6-0.9,8.8,0.2c2.8,1.1,5.2,3.7,6,7.7c4.1,19-1.3,26.1-3.2,31.4
		c-0.6,1.5-1.3,3.5-1.8,5.5l-0.1,0.4c0.2-0.1,0.5-0.1,0.7-0.2c1.4-0.1,2.5,0.4,3.1,0.6c2,0.8,3.3,2.6,4.1,4.6
		c0.2,0.5,0.3,1.1,0.4,1.7c0.1,0.2,0.1,0.4,0.1,0.7c0,0,0,0,0,0.1c-0.1,2.9-0.2,6.3-0.2,9.8c0,4.1,0.1,8.1,0.2,12.2
		c0.1,3.1,0.3,5.8,0.6,7.9c0.3,2.2,0.6,3.8,0.8,4.4c0.7,1.9,1.8,4.3,3.8,6c1.9,1.7,4.7,2.8,9.8,1.7c4.4-1,7.2-2.3,9-4.2
		c1.8-1.9,2.9-4.6,3.6-8.7c1-6.1,3.1-23.9,3.4-27.2c-0.1-2.5,0.3-4.5,1.1-5.9c0.8-1.5,2.1-2.4,3.2-2.9
		C107.6,82.8,108.1,82.7,108.5,82.5z"/>
	<polygon points="54.4,41.4 54.4,41.4 54.5,41.4 	"/>
	<path d="M61.6,75.5c2.3-6.4,6.9-11,3.1-29.2c-0.6-3-1.9-4.2-3.6-4.9c-0.8-0.3-1.8-0.5-2.8-0.5c-0.1,0-0.1,0-0.2,0
		c-1.2,0-2.4,0.2-3.6,0.4C52,42,49.8,42.9,47.8,44c-0.8,0.4-1.4,0.8-2,1.3l-0.1,0.1c0,0.9,0.2,2.9,0.3,6c0.1,3.3,0,7.6-0.6,12.2
		c-1.4,10,5.8,18.2,14.2,18.2C60,79.7,60.8,77.7,61.6,75.5z M56.6,46.5c-0.3-0.3-0.5-0.6-0.7-0.9l0,0c-0.2-0.2-0.2-0.5-0.2-0.9
		c0-0.1,0-0.1,0-0.2v0c0.1-0.6,0.6-1,1.1-1.1c0.5-0.2,1-0.2,1.5-0.2c0.1,0,0.2,0,0.3,0l0,0c0.3,0,0.6,0,1,0.1
		c0.9,0.1,1.7,0.4,2.3,0.7c0.3,0.2,0.6,0.4,0.8,0.6l0,0c0.2,0.2,0.3,0.5,0.3,0.9c0,0,0,0.1,0,0.1v0c-0.1,0.3-0.2,0.7-0.4,0.9
		c-0.2,0.3-0.5,0.5-0.8,0.8l0,0c-0.6,0.4-1.3,0.7-2.1,0.7c-0.2,0-0.3,0-0.5,0h0C58.1,47.6,57.3,47.2,56.6,46.5z"/>
	<path d="M47.7,44c0,0,0.1,0,0.1-0.1c0,0,0,0,0,0L47.7,44z"/>
	<path d="M105.7,21.9c2.5,3.2,4.7,6.9,6.4,10.9l0.1,0.3c0.6,1.5,1.1,2.8,1.3,3.9c0.1,0.5,0.2,0.9,0.2,1.4c0,0.2,0,0.4-0.1,0.8
		c0,0,0,0.1,0,0.1c0.2,5.1-1.1,8.6-1.2,13.5c-0.1,3.5,0.8,7.7,1,12.2c0.2,4.3-0.3,8.9-3,13.5c0.2,0.3,0.4,0.6,0.7,0.8
		c7.2-11.5,12.4-24.3,15.2-35.1c1.5-5.9,2.3-11.2,2.3-15.4c0.1-4.2-0.7-7.2-1.7-8.5c-7.7-10-18.2-12.6-27-12.6v0h-0.8
		c-3.4,0.1-6.7,0.4-9.8,1.1C96.4,12,101.9,16.9,105.7,21.9z"/>
	<path d="M83,6.6c-0.1,0-0.2,0-0.3-0.1l0,0L83,6.6z"/>
	<path d="M134.5,80.7c-3.4-2.6-5.6-1.6-7.9-1.1c-2.1,0.5-4.4,0.8-6.9,0.9h0c6.7-11.4,11.4-23.4,14.2-34.1c1.6-6.3,2.5-12.1,2.6-17.2
		c0.1-5.1-0.3-9.6-3.3-13.5C123.7,3.5,110.5,0.1,100.2,0c-0.3,0-0.6,0-1,0v0c-5.6,0-10.9,0.9-16,2.4l0,0L83,2.5c0.1,0,0.2,0,0.2-0.1
		l-0.2,0.1c-2.9-0.5-6.3-0.9-9.8-1h-0.1c-6.8-0.1-12.6,1.6-17.3,4.3C51.3,4.2,41.7,1.4,31.5,2c-7.1,0.4-14.8,2.6-20.5,8.7
		C5.4,16.7,2.4,26.1,3,39c0.2,3.5,1.2,9.3,2.8,16.8c1.7,7.5,4,16.2,6.9,24.2c2.9,8,6.1,15.2,11,20c2.5,2.4,5.9,4.5,9.9,4.3
		c2.8-0.1,5.4-1.4,7.6-3.2c1.1,1.4,2.2,2.1,3.3,2.6c1.3,0.7,2.6,1.2,3.9,1.6c2.4,0.6,6.5,1.4,11.2,0.6c1.6-0.3,3.3-0.8,5-1.6
		c0.1,1.9,0.1,3.8,0.2,5.7c0.2,6,0.4,11.6,2.2,16.5c0.3,0.8,1.1,4.9,4.2,8.6c3.1,3.6,9.2,5.9,16.2,4.4c4.9-1.1,11.1-3,15.3-8.9
		c4.1-5.9,5.9-14.3,6.3-28.1c0.1-0.7,0.2-1.4,0.3-2l1,0.1h0.1c5.2,0.2,10.9-0.5,15.6-2.7c4.2-2,7.4-4,9.7-7.5
		c0.6-0.9,1.2-1.9,1.4-3.8S136.2,82,134.5,80.7z M133.1,86.1L133.1,86.1c-0.1,0.7-0.4,1.4-0.8,2c-1.5,2.2-4.4,4.4-8.1,6.1
		c-3.3,1.6-8,2.4-12.2,2.4c-2.1,0-4-0.1-5.7-0.7l-0.1,0c-0.6,6.2-2.1,18.4-3,24c-0.8,4.5-2.1,8.1-4.6,10.7c-2.5,2.7-6.1,4.3-11,5.3
		c-6,1.3-10.3-0.1-13.2-2.5c-2.8-2.4-4.1-5.6-4.9-7.5c-0.5-1.3-0.8-3.1-1.1-5.4c-0.3-2.3-0.5-5.2-0.6-8.4c-0.1-3.3-0.2-7.1-0.2-10.9
		c0-1.3,0-2.5,0-3.8c-2.4,2.2-5.5,3.8-8.8,4.4l-0.1,0c-4,0.7-7.5,0-9.6-0.5c-1.1-0.3-2.1-0.7-3-1.2c-1-0.5-1.9-1.1-2.5-2.3
		c-0.2-0.4-0.4-1-0.4-1.6c0-0.2,0-0.5,0.1-0.7c0.2-0.8,0.6-1.4,1.2-1.9l0,0c1.1-0.9,2.6-1.5,4.9-1.9c4.1-0.9,5.6-1.5,6.5-2.2
		c0.7-0.6,1.6-1.8,3.1-3.6c0-0.1,0-0.1,0-0.2v0c-2.8-0.1-5.5-0.8-7.8-2.1l0.1,0c-0.9,0.9-5.3,5.6-10.7,12.2
		c-2.3,2.7-4.8,4.3-7.4,4.4c-2.6,0.1-5-1.2-7.1-3.2c-4.1-4-7.3-10.8-10.1-18.6c-2.8-7.7-5.1-16.4-6.7-23.7
		c-1.6-7.4-2.6-13.3-2.7-16.1c-0.6-12.1,2.2-20.3,7-25.5C18.6,8,25.2,6,31.6,5.6C43.2,5,54.1,9,56.4,9.9C60.6,7,66.2,5.1,73,5.3
		c3.4,0.1,6.6,0.5,9.7,1.3l0.1-0.1c1.1-0.4,2.5-0.8,4-1.2l0.3-0.1c3.6-0.9,7.7-1.4,11.9-1.5h0l0,0c9.7-0.1,22,2.7,30.9,14.1
		c2,2.6,2.6,6.3,2.5,11c-0.1,4.6-0.9,10.2-2.5,16.3c-3,11.8-8.7,25.5-16.7,37.8c0.3,0.2,0.6,0.4,0.9,0.5l0,0
		c1.7,0.7,5.5,1.3,13.1-0.3c1.9-0.4,3.3-0.7,4.8,0.4c0.7,0.6,1.1,1.4,1.1,2.3C133.1,86,133.1,86.1,133.1,86.1z"/>
</g>
</svg>
