<?xml version="1.0" encoding="utf-8"?>
<!-- Generator: Adobe Illustrator 25.2.1, SVG Export Plug-In . SVG Version: 6.00 Build 0)  -->
<svg version="1.1" id="Camada_1" xmlns="http://www.w3.org/2000/svg" xmlns:xlink="http://www.w3.org/1999/xlink" x="0px" y="0px"
	 viewBox="0 0 140 140" style="enable-background:new 0 0 140 140;" xml:space="preserve">
<path d="M66,96.9C66,97,65.9,97.1,66,96.9z M120.5,77.9c-4.4,0-8.7,1-12.7,3c-1.3-2.6-2.6-4.9-2.8-6.6c-0.3-2-0.5-3.2-0.2-5.5
	c0.3-2.4,1.7-5.7,1.7-6c0-0.2-0.3-1.4-3.1-1.5s-5.3,0.5-5.5,1.3c-0.5,1.4-0.9,2.8-1.2,4.2C96.1,69.3,91,78.4,88,83.2
	c-1-1.9-1.8-3.5-1.9-4.8c-0.3-2-0.5-3.2-0.2-5.5s1.7-5.7,1.7-6c0-0.2-0.3-1.4-3.1-1.5s-5.3,0.5-5.5,1.3c-0.3,0.7-0.6,2.5-1.2,4.2
	c-0.6,1.7-7.4,16.9-9.2,20.9c-0.9,2-1.7,3.6-2.3,4.7c-0.1,0.2-0.2,0.3-0.2,0.4c0.1-0.1,0.1-0.2,0.1-0.2c-0.5,0.9-0.8,1.5-0.8,1.5v0
	c-0.4,0.7-0.8,1.3-1,1.3c-0.1,0-0.4-1.8,0.1-4.4c1-5.3,3.5-13.5,3.4-13.8c0-0.2,0.5-1.6-1.6-2.3c-2-0.7-2.7,0.5-2.9,0.5
	c-0.2,0-0.3,0.4-0.3,0.4s2.2-9.3-4.2-9.3c-4,0-9.6,4.4-12.4,8.4c-1.7,0.9-5.5,3-9.4,5.1c-1.5,0.8-3.1,1.7-4.5,2.5
	c-0.1-0.1-0.2-0.2-0.3-0.3C24.4,78,9.9,72.1,10.6,60.9c0.2-4.1,1.6-14.8,27.8-27.9c21.4-10.7,38.6-7.7,41.5-1.2
	c4.2,9.3-9.2,26.6-31.4,29.1c-8.5,0.9-12.9-2.3-14.1-3.6c-1.2-1.3-1.3-1.4-1.8-1.1c-0.7,0.4-0.3,1.5,0,2.2c0.7,1.7,3.4,4.8,8,6.3
	c4.1,1.3,14,2.1,26.1-2.6c13.5-5.2,24-19.7,20.9-31.9C84.6,18,64.1,14,44.7,20.8c-11.5,4.1-24,10.5-33,18.9
	C1.1,49.7-0.6,58.4,0.1,62c2.5,12.9,20.2,21.3,27.4,27.5c-0.4,0.2-0.7,0.4-1,0.5C22.9,91.8,9.4,98.9,6,106.4
	c-3.8,8.5,0.6,14.6,3.6,15.4c9.1,2.5,18.5-2,23.5-9.5c5-7.5,4.4-17.3,2.1-21.8c0-0.1-0.1-0.1-0.1-0.2c0.9-0.5,1.9-1.1,2.8-1.6
	c1.8-1.1,3.6-2.1,5.1-2.9c-0.9,2.4-1.5,5.2-1.8,9.3c-0.4,4.8,1.6,11,4.2,13.5c1.1,1.1,2.5,1.1,3.4,1.1c3,0,4.4-2.5,5.9-5.5
	c1.9-3.6,3.5-7.9,3.5-7.9s-2.1,11.4,3.6,11.4c2.1,0,4.1-2.6,5-4v0c0,0,0-0.1,0.2-0.3c0.2-0.3,0.3-0.5,0.3-0.5v-0.1
	c0.8-1.4,2.6-4.7,5.4-10.1c3.5-7,6.9-15.6,6.9-15.6c0.3,1.9,0.8,3.8,1.4,5.6c0.6,2.1,1.9,4.4,2.9,6.6c-0.8,1.1-1.3,1.8-1.3,1.8
	c0,0,0,0,0,0c-0.7,0.9-1.4,1.8-2.2,2.7c-2.8,3.3-6.1,7.1-6.6,8.2c-0.5,1.3-0.4,2.3,0.6,3c0.7,0.6,2.1,0.7,3.4,0.5
	c2.5-0.2,4.3-0.8,5.1-1.2c1.6-0.6,3.1-1.3,4.4-2.3c2.7-2,4.4-4.9,4.2-8.7c-0.1-2.1-0.8-4.2-1.6-6.2c0.2-0.4,0.5-0.7,0.7-1.1
	c4.3-6.3,7.7-13.3,7.7-13.3c0.3,1.9,0.8,3.8,1.4,5.6c0.5,1.8,1.6,3.7,2.5,5.6c-4.1,3.3-6.6,7.1-7.5,9.6c-1.6,4.7-0.4,6.8,2,7.2
	c1.1,0.2,2.6-0.3,3.7-0.8c1.7-0.6,3.3-1.4,4.7-2.4c2.7-2,5.4-4.8,5.2-8.7c-0.1-1.7-0.5-3.5-1.2-5.1c3.4-1.4,7.9-2.2,13.6-1.6
	c12.2,1.4,14.6,9,14.1,12.2c-0.5,3.2-3,4.9-3.9,5.5c-0.9,0.5-1.1,0.7-1.1,1.1c0.1,0.6,0.5,0.5,1.2,0.4c1-0.2,6.4-2.6,6.6-8.5
	C140.3,86,133.2,77.8,120.5,77.9L120.5,77.9z M26.6,109.5c-4,4.4-9.7,6.1-12.1,4.7c-2.6-1.5-1.6-8,3.4-12.7c3-2.8,6.9-5.5,9.5-7.1
	c0.6-0.4,1.4-0.9,2.5-1.5c0.2-0.1,0.3-0.2,0.3-0.2c0.2-0.1,0.4-0.2,0.6-0.4C32.6,99,30.9,104.9,26.6,109.5L26.6,109.5z M56,89.5
	c-1.4,3.4-4.4,12.2-6.1,11.7c-1.5-0.4-2.5-7.1-0.3-13.6c1.1-3.3,3.4-7.2,4.8-8.8c2.2-2.5,4.6-3.3,5.2-2.3
	C60.3,77.9,56.9,87.4,56,89.5L56,89.5z M80.3,101.1c-0.6,0.3-1.1,0.5-1.4,0.4c-0.2-0.1,0.2-0.5,0.2-0.5s3-3.3,4.2-4.7
	c0.7-0.9,1.5-1.9,2.4-3c0,0.1,0,0.2,0,0.3C85.8,97.4,82,100.1,80.3,101.1L80.3,101.1z M99,96.8c-0.4-0.3-0.4-1.3,1.1-4.5
	c0.6-1.2,1.9-3.3,4.2-5.4c0.3,0.8,0.4,1.6,0.4,2.4C104.7,94.2,101.2,96.1,99,96.8L99,96.8z"/>
</svg>
