<?xml version="1.0" encoding="utf-8"?>
<!-- Generator: Adobe Illustrator 25.2.1, SVG Export Plug-In . SVG Version: 6.00 Build 0)  -->
<svg version="1.1" id="Camada_1" xmlns="http://www.w3.org/2000/svg" xmlns:xlink="http://www.w3.org/1999/xlink" x="0px" y="0px"
	 viewBox="0 0 140 140" style="enable-background:new 0 0 140 140;" xml:space="preserve">
<g>
	<g>
		<path d="M70.69,24.27C64.58,23.38,58.29,0,58.29,0C53.84,1.31,17.76,11.93,31.7,21.25c23.38,15.61,22.31,47.06-12.34,73.29
			c-48.54,36.85,48.07,47.48,49.43,45.16c23.98-40.35,12.7-70.03,12.7-70.03s28.07-9.14,52.4-12.82
			C137.1,56.44,120.07,31.22,70.69,24.27L70.69,24.27L70.69,24.27z M108.85,38.63c0,0-17.33,4.81-25.34,8.96
			c0,0,4.51-13.95,4.33-16.38C87.84,31.22,105.17,36.02,108.85,38.63L108.85,38.63L108.85,38.63z M79.65,47.59
			c0,0-7.95-4.69-10.8-5.46l16.91-10.92C85.77,31.22,85.77,37.15,79.65,47.59L79.65,47.59L79.65,47.59z M65.35,74.72l14.3,8.49
			c-2.08,2.08-15.79,8.49-15.79,8.49C65.89,86.94,65.35,74.72,65.35,74.72L65.35,74.72L65.35,74.72z M67.61,74.06l12.34-4.21
			c1.13,4.27,0.77,11.39,0.77,11.39C77.22,79.88,67.61,74.06,67.61,74.06L67.61,74.06L67.61,74.06z M38.11,102.13
			c0,0,11.1-18.75,10.68-20.83c0,0,1.25,5.1,9.38,12.52C58.17,93.82,52.24,97.8,38.11,102.13L38.11,102.13L38.11,102.13z M57.4,97.5
			c0,0-2.2,10.21-7.48,18.22c0,0-7.77-3.15-13.35-10.5C36.51,105.22,55.32,98.93,57.4,97.5L57.4,97.5L57.4,97.5z M61.02,44.09
			c0,0-6.29,6.11-10.09,9.61c0,0-0.18-13.29-1.01-13.77C49.86,39.88,57.58,41.84,61.02,44.09L61.02,44.09z M50.87,36.02l10.8-9.32
			c0,0,2.73,3.03,2.08,13.65C63.75,40.35,53.9,36.68,50.87,36.02L50.87,36.02L50.87,36.02z M62.5,46.76c0,0-1.78,8.84-5.93,14.12
			c0,0-3.92-3.38-5.64-4.51C50.87,56.44,61.38,47.77,62.5,46.76L62.5,46.76L62.5,46.76z M55.44,66.88c0,0,3.03,1.96,2.73,6.77
			c0,0-20.24,9.14-23.26,11.22C34.91,84.8,54.31,68.78,55.44,66.88L55.44,66.88L55.44,66.88z M50.87,80.35l10.92-4.51
			c0,0,1.6,7.54-1.96,15.9C59.89,91.75,54.37,88.48,50.87,80.35L50.87,80.35L50.87,80.35z M61.02,72.82c0,0-1.25-8.19-2.85-9.44
			c0,0,7.06-3.38,17.51-9.44C75.68,53.83,62.44,70.68,61.02,72.82L61.02,72.82z M61.85,58.22c0,0,3.86-10.56,3.68-13l10.09,5.46
			L61.85,58.22z M82.38,30.62c-1.13,0.47-16.85,9.32-16.85,9.32c2.37-7.36-1.66-13.17-1.66-13.17L82.38,30.62L82.38,30.62z
			 M65.53,23.68L54.31,21.9l8.37-5.1L65.53,23.68z M40.84,9.55C41.79,8.78,57.7,1.72,57.7,1.72s4.51,11.22,3.03,11.22
			C59.3,12.94,39.83,10.39,40.84,9.55L40.84,9.55L40.84,9.55z M61.02,15.01L50.87,21.3h-2.55c0,0-9.32-9.44-9.61-10.44
			C38.77,10.86,58.59,15.37,61.02,15.01L61.02,15.01L61.02,15.01z M36.81,11.99l7.06,8.25c0,0-11.1-2.49-11.87-3.44
			C31.23,15.85,36.81,11.99,36.81,11.99L36.81,11.99z M35.68,21.3l7.06,2.37l2.55,8.49C45.29,32.22,38.59,23.38,35.68,21.3
			L35.68,21.3L35.68,21.3z M44.52,23.68l15.43,2.26L48.38,34.6C48.38,32.7,44.52,23.68,44.52,23.68L44.52,23.68L44.52,23.68z
			 M49.03,60.89c0,0,2.73,0.77,4.04,2.37c0,0-4.69,4.15-8.49,6.59C44.52,69.85,48.85,62.37,49.03,60.89L49.03,60.89L49.03,60.89z
			 M39.36,76.38c0,0,5.88-5.46,12.82-8.43L32.95,84.8L39.36,76.38L39.36,76.38z M43.57,83.2c0,0-4.69,13.17-9.32,17.8
			c0,0-2.08-2.55-2.37-12.05C31.82,89.02,41.61,83.85,43.57,83.2L43.57,83.2L43.57,83.2z M27.85,90.8c0,0-0.3,5.1,3.2,13.29
			c0,0-17.98,5.64-20.83,5.64C10.16,109.67,12.12,98.28,27.85,90.8L27.85,90.8z M10.16,111.15c5.28,0,20.06-4.15,20.06-4.15
			c-0.77,2.91-12.05,17.51-12.05,17.51C9.39,118.33,10.16,111.15,10.16,111.15L10.16,111.15L10.16,111.15z M19.48,125.28
			l13.47-17.33c0,0,5.93,5.64,12.34,9.14l-25.1,9.14L19.48,125.28L19.48,125.28z M21.73,126.52l25.52-6.88l-9.14,13.77
			C38.11,133.47,27.67,131.98,21.73,126.52L21.73,126.52L21.73,126.52z M50.87,119.64c0,0,10.62,4.69,21.54,4.81
			c0,0-25.7,9.91-33.06,10.27C39.36,134.71,51.05,120.59,50.87,119.64L50.87,119.64L50.87,119.64z M67.61,139.22
			c0,0-17.86-1.48-23.09-4.51c0,0,15.67-3.03,28.6-8.49C73.13,126.23,69.21,137.27,67.61,139.22L67.61,139.22L67.61,139.22z
			 M73.13,123.68c0,0-18.04-3.2-20.89-6.59c0,0,25.04-10.09,25.93-11.87C78.11,105.22,76.15,119.88,73.13,123.68L73.13,123.68
			L73.13,123.68z M53.84,113.71l8.01-17.03c0,0,11.87,6.23,16.26,7.24C78.11,103.91,57.82,113.88,53.84,113.71L53.84,113.71
			L53.84,113.71z M78.82,102.13c-7.24-1.78-14.95-7.71-14.95-7.71c3.44-0.95,16.97-9.02,16.97-9.02
			C81.85,94.12,78.82,102.13,78.82,102.13L78.82,102.13z M64.76,71.33c0,0,14.12-15.73,14.9-17.63c0,0,8.84,4.33,11.87,8.96
			C91.52,62.67,68.44,69.91,64.76,71.33L64.76,71.33z M83.51,49.85c0,0,24.57-9.32,26.94-9.44c0,0-6.11,11.39-16.2,21.36
			C94.25,61.72,88.73,52.88,83.51,49.85L83.51,49.85L83.51,49.85z M98.59,60.89c0,0,12.17-14.12,14.6-20.53
			c0,0,16.2,10.74,18.63,15.73C131.82,56.14,104.88,58.34,98.59,60.89L98.59,60.89L98.59,60.89z"/>
	</g>
</g>
</svg>
