<?xml version="1.0" encoding="utf-8"?>
<!-- Generator: Adobe Illustrator 25.2.1, SVG Export Plug-In . SVG Version: 6.00 Build 0)  -->
<svg version="1.1" id="Camada_1" xmlns="http://www.w3.org/2000/svg" xmlns:xlink="http://www.w3.org/1999/xlink" x="0px" y="0px"
	 viewBox="0 0 140 140" style="enable-background:new 0 0 140 140;" xml:space="preserve">
<path d="M70,0H0v70v70h70h70V70V0H70z M80.25,76.2h-9.11h-9.11v25.89v25.89h-6.44h-6.44v-25.89V76.2h-9.11h-9.11l0.04-5.73
	l0.07-5.71l24.47-0.07c13.44-0.02,24.53,0.02,24.6,0.11c0.09,0.07,0.16,2.67,0.16,5.78V76.2z M127.86,117.32
	c-2.22,5.82-7.73,9.78-15.49,11.09c-2.4,0.42-8.09,0.36-10.67-0.11c-5.62-1-10.96-3.78-14.24-7.42c-1.29-1.42-3.8-5.13-3.64-5.4
	c0.07-0.09,0.64-0.44,1.29-0.82c0.62-0.36,2.98-1.71,5.2-3l4.02-2.33l0.84,1.24c1.18,1.8,3.76,4.27,5.31,5.09
	c4.47,2.36,10.6,2.02,13.62-0.69c1.29-1.18,1.82-2.4,1.82-4.2c0-1.62-0.2-2.33-1.04-3.56c-1.09-1.56-3.31-2.87-9.62-5.6
	c-7.22-3.11-10.33-5.04-13.18-8.11c-1.64-1.78-3.2-4.62-3.84-7c-0.53-1.98-0.67-6.93-0.24-8.93c1.49-6.98,6.76-11.84,14.36-13.29
	c2.47-0.47,8.2-0.29,10.62,0.31c3.56,0.89,6.27,2.47,8.76,5.04c1.29,1.38,3.2,3.89,3.36,4.49c0.04,0.18-6.04,4.27-9.73,6.56
	c-0.13,0.09-0.67-0.49-1.27-1.38c-1.8-2.62-3.69-3.76-6.58-3.96c-4.24-0.29-6.98,1.93-6.96,5.64c0,1.09,0.16,1.73,0.6,2.62
	c0.93,1.93,2.67,3.09,8.11,5.44c10.02,4.31,14.31,7.16,16.98,11.2C129.21,104.77,129.88,111.97,127.86,117.32z"/>
</svg>
