<?xml version="1.0" encoding="utf-8"?>
<!-- Generator: Adobe Illustrator 25.0.0, SVG Export Plug-In . SVG Version: 6.00 Build 0)  -->
<svg version="1.1" id="Camada_1" xmlns="http://www.w3.org/2000/svg" xmlns:xlink="http://www.w3.org/1999/xlink" x="0px" y="0px"
	 viewBox="0 0 410 410" style="enable-background:new 0 0 410 410;" xml:space="preserve">
<style type="text/css">
	.st0{enable-background:new    ;}
	.st1{fill:#0092CA;}
</style>
<g class="st0">
	<path class="st1" d="M127.9,103.8v23.3l-59.1,36.2l59.1,41v62l-122-84.7v-2.9L127.9,103.8z"/>
	<path class="st1" d="M256.5,93c1.7-0.1,3.1,0.4,4.4,1.5c1.2,1.1,1.9,2.3,1.9,3.7c0,1-1,3.8-3.1,8.3c-2.1,4.5-9.4,19.9-21.8,46.1
		l-56.2,118.8l-15.3,32.4c-2.9,6-4.7,9.9-5.3,11.7c-2.4,6-5.2,9-8.5,9c-1.5,0-2.8-0.5-3.9-1.5c-1.1-1-1.7-2.2-1.7-3.5
		c0-1.4,1.1-4.4,3.3-8.9l5.4-11.6l43.9-92.3l27.5-58.2l12.8-26.9c7.1-15.3,11.1-23.9,12.1-25.7C253.1,94,254.6,93.1,256.5,93z"/>
	<path class="st1" d="M282.1,266.2v-23.3l59.1-36.2l-59.1-41v-62l122,84.7v2.9L282.1,266.2z"/>
</g>
</svg>
